# xmcd
#
# Track frame offsets:
# 150
# 5418
# 19977
# 42842
# 60562
# 78463
# 93602
# 104005
# 120471
# 144778
# 169856
# 175031
# 193722
# 204327
# 220700
# 237347
# 254238
# 264415
# 280658
# 292817
# 295327
# 308610
# 323277
# 333993
# 348407
#
# Disc length: 4785 seconds
#
# Revision: 0
# Processed by: cddbd v1.5.2PL0 Copyright (c) Steve Scherf et al.
# Submitted via: Audion 3.0.2 (http://www.panic.com/audion/)
#
DISCID=6512af19
DTITLE=Gansta soul - Gansta soul-2
DYEAR=1900
DGENRE=
TTITLE0=Gansta soul
TTITLE1=Gansta soul
TTITLE2=Gansta soul
TTITLE3=Gansta soul
TTITLE4=Gansta soul
TTITLE5=Gansta soul
TTITLE6=Gansta soul
TTITLE7=Gansta soul
TTITLE8=Gansta soul
TTITLE9=Gansta soul
TTITLE10=Gansta soul
TTITLE11=Gansta soul
TTITLE12=Gansta soul
TTITLE13=Gansta soul
TTITLE14=Gansta soul
TTITLE15=Gansta soul
TTITLE16=Gansta soul
TTITLE17=Gansta soul
TTITLE18=Gansta soul
TTITLE19=Gansta soul
TTITLE20=Gansta soul
TTITLE21=Gansta soul
TTITLE22=Gansta soul
TTITLE23=Gansta soul
TTITLE24=Gansta soul
EXTD=
EXTT0=
EXTT1=
EXTT2=
EXTT3=
EXTT4=
EXTT5=
EXTT6=
EXTT7=
EXTT8=
EXTT9=
EXTT10=
EXTT11=
EXTT12=
EXTT13=
EXTT14=
EXTT15=
EXTT16=
EXTT17=
EXTT18=
EXTT19=
EXTT20=
EXTT21=
EXTT22=
EXTT23=
EXTT24=
PLAYORDER=
